<?xml version="1.0" encoding="utf-8"?>
<!-- Generator: Adobe Illustrator 25.2.0, SVG Export Plug-In . SVG Version: 6.00 Build 0)  -->
<svg version="1.1" id="Camada_1" xmlns="http://www.w3.org/2000/svg" xmlns:xlink="http://www.w3.org/1999/xlink" x="0px" y="0px"
	 viewBox="0 0 113.4 113.4" style="enable-background:new 0 0 113.4 113.4;" xml:space="preserve">
<style type="text/css">
	.st0{fill-rule:evenodd;clip-rule:evenodd;fill:#010202;}
	.st1{fill-rule:evenodd;clip-rule:evenodd;fill:#FFFFFF;}
</style>
<g>
	<path class="st0" d="M56.5,113.7c31.2,0,56.7-25.5,56.7-56.7S87.7,0.3,56.5,0.3S-0.2,25.7-0.2,57S25.2,113.7,56.5,113.7L56.5,113.7
		z"/>
	<path class="st1" d="M80.9,43L67,56.9l13.9,13.9c2.9,2.9,2.9,7.6,0,10.5s-7.6,2.9-10.5,0L56.5,67.4l-14,14c-2.9,2.9-7.6,2.9-10.4,0
		c-2.9-2.9-2.9-7.6,0-10.5L46,57L32.1,43.1c-2.9-2.9-2.9-7.6,0-10.4c2.8-2.9,7.5-2.9,10.4,0l13.9,13.9l13.9-13.9
		c2.9-2.9,7.6-2.9,10.5,0C83.8,35.5,83.8,40.2,80.9,43L80.9,43z"/>
</g>
</svg>
