<?xml version="1.0" encoding="utf-8"?>
<!-- Generator: Adobe Illustrator 25.2.0, SVG Export Plug-In . SVG Version: 6.00 Build 0)  -->
<svg version="1.1" id="Camada_1" xmlns="http://www.w3.org/2000/svg" xmlns:xlink="http://www.w3.org/1999/xlink" x="0px" y="0px"
	 viewBox="0 0 113.4 113.4" style="enable-background:new 0 0 113.4 113.4;" xml:space="preserve">
<style type="text/css">
	.st0{fill-rule:evenodd;clip-rule:evenodd;fill:#010202;}
	.st1{fill-rule:evenodd;clip-rule:evenodd;fill:#FFFFFF;stroke:#010202;stroke-width:0.5669;stroke-miterlimit:10;}
</style>
<path class="st0" d="M56.5,113.7c31.2,0,56.7-25.5,56.7-56.7S87.7,0.3,56.5,0.3S-0.2,25.7-0.2,57S25.3,113.7,56.5,113.7L56.5,113.7z
	"/>
<path class="st1" d="M49.1,85.5V46.3L34.8,60.7c-2.9,2.9-7.6,2.9-10.5,0s-2.9-7.6,0-10.5l27-26.9c0.7-0.7,1.5-1.2,2.3-1.6l0,0h0.1
	l0.1-0.1c0.9-0.3,1.8-0.5,2.7-0.5c1,0,1.9,0.2,2.8,0.5l0.1,0.1h0.1l0,0c0.9,0.4,1.7,0.9,2.3,1.6l27,26.9c2.9,2.9,2.9,7.6,0,10.5
	s-7.6,2.9-10.5,0L63.9,46.3v39.2c0,4.1-3.3,7.4-7.4,7.4S49.1,89.6,49.1,85.5L49.1,85.5z"/>
</svg>
