<?xml version="1.0" encoding="utf-8"?>
<!-- Generator: Adobe Illustrator 25.2.0, SVG Export Plug-In . SVG Version: 6.00 Build 0)  -->
<svg version="1.1" id="Camada_1" xmlns="http://www.w3.org/2000/svg" xmlns:xlink="http://www.w3.org/1999/xlink" x="0px" y="0px"
	 viewBox="0 0 113.4 113.4" style="enable-background:new 0 0 113.4 113.4;" xml:space="preserve">
<style type="text/css">
	.st0{fill-rule:evenodd;clip-rule:evenodd;fill:#010202;}
	.st1{fill:#FFFFFF;}
</style>
<g>
	<path class="st0" d="M56.5,113.7c31.2,0,56.7-25.5,56.7-56.7S87.8,0.3,56.5,0.3S-0.2,25.7-0.2,57S25.3,113.7,56.5,113.7L56.5,113.7
		z"/>
	<path class="st1" d="M83.9,34.9l-5.3-5.3c-2.4-2.5-6.3-2.5-8.7,0l-2,2l14,14.1l2-2.1C86.3,41.3,86.3,37.3,83.9,34.9L83.9,34.9z"/>
	<path class="st1" d="M29.8,70.8l-2.5,13.4c-0.1,0.6,0.1,1.2,0.5,1.5c0.4,0.4,1,0.6,1.5,0.5l13.4-2.5L29.8,70.8z"/>
	<polygon class="st1" points="65.3,34.1 31.7,67.7 45.7,81.9 79.4,48.2 	"/>
</g>
</svg>
